<svg xmlns="http://www.w3.org/2000/svg" xml:space="preserve" width="43.3492mm" height="43.3492mm" version="1.1" style="shape-rendering:geometricPrecision; text-rendering:geometricPrecision; image-rendering:optimizeQuality; fillRule:evenodd; clipRule:evenodd" viewBox="0 0 4335 4335" xmlns:xlink="http://www.w3.org/1999/xlink">
 <defs>
  <style type="text/css">
   
    .fil0 {fill:black}
   
  </style>
 </defs>
 <g id="Layer_x0020_1">
  <metadata id="CorelCorpID_0Corel-Layer"></metadata>
  <g id="_395483168">
   <g>
    <path class="fil0" d="M2122 3264l-1478 0c-357,0 -646,-289 -646,-645 0,-356 289,-646 646,-646 21,0 42,0 63,4 -7,-42 -10,-81 -10,-120 0,-430 352,-783 783,-783 165,0 328,53 458,148 28,21 32,60 14,85 -21,28 -60,32 -84,14 -110,-81 -247,-124 -385,-124 -363,0 -659,297 -659,660 0,57 7,116 24,180 4,21 0,42 -14,56 -14,15 -35,22 -56,18 -50,-11 -92,-18 -131,-18 -289,0 -522,233 -522,522 0,290 229,526 519,526l1478 0c35,0 63,28 63,63 0,36 -28,60 -63,60zm1643 -165c-17,0 -31,-7 -46,-22 -24,-24 -21,-63 4,-88 102,-95 162,-232 162,-374 0,-289 -233,-522 -522,-522 -67,0 -137,15 -201,43 -17,7 -35,7 -53,-4 -17,-10 -28,-24 -32,-42 -21,-120 -70,-229 -148,-314 -21,-25 -21,-64 7,-88 25,-21 64,-21 89,7 74,88 130,190 162,303 60,-17 120,-28 180,-28 356,0 645,289 645,645 0,177 -74,346 -201,466 -17,14 -32,18 -46,18z" id="id_101" style="fill: rgb(255, 255, 255);"></path>
   </g>
   <g>
    <path class="fil0" d="M1007 1984c-35,0 -63,-28 -63,-63 0,-353 285,-642 641,-642 36,0 64,28 64,63 0,35 -28,64 -64,64 -285,0 -518,232 -518,518 4,32 -25,60 -60,60z" id="id_102" style="fill: rgb(255, 255, 255);"></path>
   </g>
   <g>
    <path class="fil0" d="M760 3060c-293,0 -529,-236 -529,-529 0,-35 28,-64 64,-64 35,0 63,29 63,64 0,222 183,405 406,405 35,0 63,29 63,64 0,35 -35,60 -67,60z" id="id_103" style="fill: rgb(255, 255, 255);"></path>
   </g>
   <g>
    <path class="fil0" d="M3935 3871l-1595 0c-222,0 -402,-180 -402,-406 0,-222 180,-402 402,-402 4,0 7,0 7,0 0,-14 -3,-28 -3,-42 0,-268 219,-487 487,-487 165,0 321,88 409,226 46,-14 95,-21 141,-21 215,0 398,137 462,335 28,-7 60,-11 92,-11 222,0 402,180 402,402 0,223 -180,406 -402,406zm-1595 -684c-155,0 -278,123 -278,278 0,156 123,283 278,283l1595 0c155,0 278,-127 278,-283 0,-155 -123,-278 -278,-278 -43,0 -78,7 -110,21 -17,7 -39,7 -53,-4 -17,-10 -28,-24 -31,-45 -29,-173 -180,-300 -357,-300 -49,0 -102,10 -144,32 -32,14 -67,0 -81,-29 -60,-123 -187,-204 -325,-204 -201,0 -363,162 -363,363 0,35 3,67 14,99 7,21 0,46 -18,60 -17,14 -39,21 -60,14 -17,-4 -38,-7 -67,-7z" id="id_104" style="fill: rgb(255, 255, 255);"></path>
   </g>
   <g>
    <path class="fil0" d="M3818 1797l-1594 0c-222,0 -402,-180 -402,-402 0,-222 180,-406 402,-406 3,0 7,0 7,0 0,-14 0,-28 0,-42 0,-268 219,-483 487,-483 169,0 321,84 409,222 46,-14 92,-21 141,-21 215,0 399,137 462,335 28,-7 60,-11 92,-11 222,0 402,180 402,406 -4,222 -184,402 -406,402zm-1594 -681c-155,0 -279,127 -279,283 0,155 124,278 279,278l1594 0c155,0 279,-123 279,-278 0,-156 -124,-283 -279,-283 -39,0 -74,7 -109,22 -18,7 -39,7 -53,-4 -18,-11 -28,-25 -32,-46 -28,-173 -180,-300 -356,-300 -53,0 -102,11 -141,32 -14,7 -32,7 -46,4 -14,-7 -28,-18 -35,-32 -60,-127 -187,-205 -325,-205 -201,0 -363,163 -363,360 0,35 3,67 14,99 7,21 0,46 -18,60 -17,14 -38,21 -60,14 -21,-4 -42,-4 -70,-4z" id="id_105" style="fill: rgb(255, 255, 255);"></path>
   </g>
  </g>
 </g>
</svg>